<?xml version="1.0" encoding="UTF-8"?>
<svg version="1.1" viewBox="0 0 1131 1600" width="420" height="594" xmlns="http://www.w3.org/2000/svg">
<path transform="translate(529,429)" d="m0 0h19l17 2 26 9 16 8 14 9 13 10 12 11 7 7 11 14 9 12 10 17 8 16 8 21 7 24 7 29 3 8 18 7 28 13 18 11 16 11 10 8 10 9 8 7 7 7 11 15 10 17 8 17 6 25 1 10v17l-2 17-6 22-10 18-10 13-10 11-11 9-13 9-13 8-16 7-18 6-23 6-14 2-30 1-22-1-22-3-42-8-8-2h-6l-22 18-18 12-17 10-25 12-23 8-24 5-7 1h-33l-24-6-17-7-9-6-11-7-10-9-7-6-9-11-7-10-9-16-6-15-4-20-2-18v-10l4-30 3-13 6-19 5-11 8-16 9-16 12-16 9-11 6-7 29-29 9-7-1-13-3-24v-38l5-35 5-21 4-12 9-19 8-14 13-17 15-15 12-9 14-8 18-7 13-3zm5 84-9 3-10 7-10 11-8 17-7 21-2 21v21l1 16 36-12 30-7 23-2 34-1 1-5-6-25-5-12-5-10-7-10-8-10-7-7-8-6h-2v-2l-16-7-5-1zm73 183-35 5-27 7-21 9-4 2 2 5 7 11 10 13 7 8 8 7 8 8 8 7 10 9 3 1 6-14 4-8 6-19 7-31 3-16v-4zm96 17-2 8-6 27-8 25-7 17-8 18-8 15-5 8v2l9 3 15 2h27l19-3 23-6 16-8 9-8 6-11 1-4v-10l-3-10-9-17-10-12-8-7-10-8-23-14-16-7zm-263 53-8 8-8 7-7 9-10 16-6 15-5 15-2 11v10l2 11 7 16 8 7 13 5 11 2 14-1 21-5 14-6 16-8 11-8 9-6-2-5-6-5-7-8-23-23-9-11-11-14-15-25-5-7z" fill="#071574"/>
<path transform="translate(599,613)" d="m0 0 23 1 36 4 34 7 27 8 12 5 13 6 14 7 11 6 12 7 1 3h3v2l6 2 6 5 5 5 7 6 9 7 3 3 2 4 2 1 2 4 5 5v2h2v3h2l1 4 2 1 8 14 5 11 3 12 3 9 2 10 1 8v28l-2 10h-2l-1 6-3 8-1 4h-2v4h-2l-2 9-9 12-7 7-5 4h-2l-2 4-10 8-20 12-14 7-17 6-26 6-15 1-1-2 9-3h7v-2l13-5 16-7 1-2-9 4-26 9-27 6-20 2h-15l-16-2-2-3 2-11 4-20 6-16 2-2h12l14 1h21l27-4 17-5 10-4 15-9 10-9 7-12 4-13v-17l-4-17-8-16-7-9-6-7-14-11-15-9-27-13-26-10-33-9-21-2h-45l-18 2-28 8-20 7-5 2h-7l-6-9-3-9 1-4 15-9 24-10 25-5 34-5h32l31 4 17 3 23 6 14 6 12 5 1-1-10-4-10-5v-2l-7-1-10-3v-2l-14-1-11-3-1-1-7-1-33-2h-18l-20 1-27 2-16 4-20 6-8 3h-6l-1-1-3-24v-19l1-3 20-7 19-3 26-3z" fill="#F8B864"/>
<path transform="translate(366,718)" d="m0 0 4 1 5 8 5 14 1 15-3 12-4 11-5 8-6 13-5 19-2 19v21l3 14 5 15 7 11 8 10 2 1v2l3 1v2l4 2 11 7 11 5 7 2 17 2h17l21-2 17-5 9-4 11-5 13-7 17-12 13-11 10-9 5-6 6-5 9-11 8-10 10-14 6-9 6-10 4-8 5-7 6-13 5-9 7-7h2v-2l10-6 15-5 5-1h8l5 3-6 20-7 18-5 12-10 19-11 18-13 17-9 11-18 20-15 15-8 7-5 5-2 1-3 5-4 3-7 2-13 9-21 12-17 8-18 7h-3v2l-16 4-15 2h-31l-11-1v-2l-8-1-15-4-24-11-11-7-7-6v-2l-5-2-3-3-1-3-4-4-6-10-1-5-3-1-9-26-3-23v-32l2-15h2l1-14 3-8 2-10 2-5 5-2-1 9-3 15-1 10v34l2 14 1 4-1-13v-23l4-32 7-28 6-16 7-15 6-11z" fill="#4E6BFC"/>
<path transform="translate(535,435)" d="m0 0 14 1 22 3 15 4v2l9 3 9 5 18 12 5 5 15 13 9 10 9 12 7 9-1 2-27-27-15-11-6-5-13-5-17-7-17-5h-8l14 3 18 7 16 9 19 14 16 15 14 14 11 14 10 13 8 13 1 5h2l2 8v5l-14-1-11-3-9-4-8-7-9-10-14-22-8-12-9-11-10-10-11-7-11-5-13-4-9-2-10-1h-13l-17 3-16 6-13 9-10 10-9 13-8 16-6 17-5 18-1 11v52l2 14 7 30 7 22 10 23 5 10 10 19 6 10 2 5 1 6v16l-4 15-7 12-5-1-10-13-8-12-9-16-5-9-9-17-8-16-7-17-3-7-1-1-3-16-3-9-3-18-5-41v-35l5-35 5-17 3-8 1-6h2l3-9 10-18 2-4h2l2-4 12-13 8-7 3-3 4-3h2l2-4 11-6 12-6 14-5z" fill="#09BFE1"/>
<path transform="translate(534,507)" d="m0 0h13l10 3 6 3v2l7 2 9 7v2l4 2 4 3v2l4 2 2 4 7 6 4 5v2h2v2h2l3 6 2 1 3 5v3h2l7 15 6 12 4 7v3l6-1-3-12-3-6-2-9-12-27-7-12 1-3 7 9 6 11 3 3 11 27 8 22 19 3 13 4v2l12 2 9 3 6 1-1-10 1-7h1l4 15 2 5 18 7 28 13 18 11 16 11 10 8 10 9 8 7 7 7 11 15 10 17 8 17 6 25 1 10v17l-2 17-6 22-10 18-10 13-10 11-11 9-13 9-13 8-16 7-18 6-23 6-14 2-30 1-22-1-22-3-42-8-8-2h-6l-22 18-3 1-2-2v-3l5-2 4-3 2-4 5-3 7-8 10-9 14-14 7-8 12-14 8-11 6-8 7-3-1-4 7-8 2-1v4l14 3 10 1h27l19-3 23-6 16-8 8-7 6-11 1-4v-10l-3-10-9-17-9-11-8-7-10-8-23-14-18-8-3 18-6 24-6 18-4 9-2-2v-4h2l-1-4 2-5 3-17 1-1-2-7-3-4-3-1v-2l-6-2-8-4-5-3v-2h-11l-4 4-9 30-3 3 1-8 4-11 2-8v-9l-3-6 1-13-2-5-13-1-7 2-2 2-4 19-4 5-1 2h-2v2l-3 1 2-12 5-25-10 2-32 5-24 7-19 8-4 1 5 9-4-2-9-9-4-8v-3h5l3 4h7l14-5 24-8 15-4 18-2h45l21 2 36 10 25 10 29 14 15 10 12 10v2l3 1 10 13 7 15 4 17v17l-4 13-8 13-7 7-13 8-12 6-15 5-25 4-7 1h-21l-14-1h-12l-3 7-5 13-4 25-1 4 1 1 16 2h15l20-2 30-7 23-8 9-4 3 1-10 6-20 8h-3v2l-9 2-6 2 15-1 26-6 20-7 18-10 16-10 8-7 5-5 10-9 9-13v-4h2l1-5 4-8 4-12h2l-1-3 2-7v-31l-2-13-2-7-7-21-8-15v-2l-2-1-3-5v-2h-2v-3h-2l-3-4v-2l-4-2v-3l-4-2v-3l-3-1-5-5-8-6-10-10-10-6v-2h-3l-4-4-16-9-28-14-13-5-16-5-17-5-30-6-36-4-23-1-28 2-30 4-12 3-12 4-6 1-6 3-5 1-9 3 2 20 2 4 1 7 2 3 1 4 3 10-2 5-1-4h-2l-3-10v-3h-2l-3-15-2-5-2-12-2-35v-27l2-15 1-4h2v-5l5-12 7-11 2-4 8-7 3-1v-3l13-6zm0 6-9 3-10 7-10 11-8 17-7 21-2 21v21l1 16 36-12 30-7 23-2 34-1 1-5-6-25-5-12-5-10-7-10-8-10-7-7-8-6h-2v-2l-16-7-5-1z" fill="#071261"/>
<path transform="translate(535,476)" d="m0 0h13l15 2 14 4 12 5 10 6 10 9 7 7 11 15 11 18 8 11 9 10 8 6 13 4 18 3-2-10 2 1 2 6 3 20 5 19 1 9-15-2-8-2v-2l-10-2-14-3-8-1-5-12-8-21-9-21-8-14-11-14-9-10-7-7-13-9-12-6-11-2h-19l-12 4-12 7-3 3h-2l-1 3h-2v2l-5 5-7 9-5 11-5 19-2 22v19l1 25 2 19 5 23 5 16 6 16 7 16 5 9 10 15 10 14 11 12v2l4 2v2l4 2 10 9 11 9 5 5-1 5-12 17-3 3-6-2-1-3-4-2-7-6-15-15-9-7-4-6-5-4-7-10-14-22-5-9-5-10v-2h-2l4 9 6 12 6 11 5 8 8 14 9 10 20 20v2l4 2 12 12 3 6-6 9-19 19h-2l-1 3h-5l-8-7-7-8-4-4v-2h-2l-11-14-7-6-7-10-12-17v-3h-2l-14-26-6-11v-2h-2l-8-21-4-9 1-4 5 12 6 14 12 22 5 10 7 11 3 6 11 16 7 9 4 1 2-5 5-9 3-13v-16l-2-8-6-12-8-14-9-18-11-26-7-24-6-28-1-9v-52l2-15 6-21 9-21 9-14 11-12 8-7 12-7 16-5z" fill="#05629F"/>
<path transform="translate(406,678)" d="m0 0 4 3 7 27 4 11 2 6-1 6-13 18-8 11-15 32-6 15-6 21-2 11-1 16 2 13 5 15 8 11 6 5 8 5 14 5 8 1h20l21-5 18-8 13-8 17-12 10-7 11-9 9-9h2v-2l8-7 8-10 9-11 7-10 11-18 4-9 3-9 4-11 6-17 3-18 4-6 2-6 3-14 5-4 6-1 12 2 3 5-1 14 3 5v9l-4 15-3 7v4l5-16 6-18 4-3h8l3 1v2l5 2 14 7v2l4 1 4 6 1 6h-2v8l-2 10-2 5v3h-2l1 8-5 13-10 21-8 13h-3l-6 7 1 4-4 3h-3l2-5 6-9 6-11 7-13 4-11 7-18 3-11 3-9-4-2h-8l-12 3-12 5-4 3h-2v2l-8 7-5 9-8 16-6 9-5 10-6 9-11 16-7 8-7 9-9 10-14 14-11 9-12 9-10 7-14 8-10 4-11 5-15 4-21 2h-20l-18-3-12-5-10-6-7-5-3-3v-2l-4-2-10-13-6-12-5-17-1-7v-21l2-19 5-19 8-17 4-6 5-16 1-11-2-13-7-16-2-2-4 1-2 1 2-4 4-4h2l2-4 13-14 5-5 11-9z" fill="#223AAA"/>
<path transform="translate(606,660)" d="m0 0h32l31 4 17 3 23 6 14 6 12 5 1-1-5-2 4-1 10 6 1 2 7 3 19 14 7 7 7 6 10 13 13 21 5 10 4 12 2 17-1 17-3 10-8 16-7 11-12 14-7 6-14 8-12 5-16 3-45 5-15 3-9 6-6 6h-2l-2 4-7 10-1 3h5v1h-7l-2-3 2-11 4-20 6-16 2-2h12l14 1h21l27-4 17-5 10-4 15-9 10-9 7-12 4-13v-17l-4-17-8-16-7-9-6-7-14-11-15-9-27-13-26-10-33-9-21-2h-45l-18 2-28 8-20 7-5 2h-7l-6-9-3-9 1-4 15-9 24-10 25-5z" fill="#7A635F"/>
<path transform="translate(534,507)" d="m0 0h13l10 3 6 3v2l7 2 9 7v2l4 2 4 3v2l4 2 2 4 7 6 4 5v2h2v2h2l3 6 2 1 3 5v3h2l7 15 6 12 4 7v3l6-1-3-12-3-6-2-9-12-27-7-12 1-3 7 9 6 11 3 3 11 27 8 22 19 3 13 4v2l12 2 9 3 6 1-1-10 1-7h1l4 15 2 5 18 7 28 13 18 11 16 11 10 8 10 9 8 7 7 7 11 15 10 17 8 17 6 25 1 10v17l-2 17-6 22-10 18-10 13-10 11-11 9-13 9-13 8-16 7-18 6-23 6-14 2-30 1-22-1-22-3-31-6v-1l5-1-3-3 17 2 2 1v-2l-14-1-13-2-4-2v-3l7-6 7-8 8-9 11-15 4-3h28v1l-8 1-3 7-5 13-4 25-1 4 1 1 16 2h15l20-2 30-7 23-8 9-4 3 1-10 6-20 8h-3v2l-9 2-6 2 15-1 26-6 20-7 18-10 16-10 8-7 5-5 10-9 9-13v-4h2l1-5 4-8 4-12h2l-1-3 2-7v-31l-2-13-2-7-7-21-8-15v-2l-2-1-3-5v-2h-2v-3h-2l-3-4v-2l-4-2v-3l-4-2v-3l-3-1-5-5-8-6-10-10-10-6v-2h-3l-4-4-16-9-28-14-13-5-16-5-17-5-30-6-36-4-23-1-28 2-30 4-12 3-12 4-6 1-6 3-5 1-9 3 2 20 2 4 1 7 2 3 1 4 3 10-2 5-1-4h-2l-3-10v-3h-2l-3-15-2-5-2-12-2-35v-27l2-15 1-4h2v-5l5-12 7-11 2-4 8-7 3-1v-3l13-6zm0 6-9 3-10 7-10 11-8 17-7 21-2 21v21l1 16 36-12 30-7 23-2 34-1 1-5-6-25-5-12-5-10-7-10-8-10-7-7-8-6h-2v-2l-16-7-5-1z" fill="#0A1665"/>
<path transform="translate(535,435)" d="m0 0 14 1 22 3 15 4v2l9 3 9 5 18 12 5 5 15 13 9 10 9 12 7 9-1 2-27-27-15-11-6-5-13-5-17-7-22-6-5-1h-23l-21 6-17 8-13 9-16 15-9 10-10 15-6 10-8 19-6 20-4 24-3 30v23l2 29 4 32 3 14-1 3-4-9v-3h-2l-3-4-3-16-3-9-3-18-5-41v-35l5-35 5-17 3-8 1-6h2l3-9 10-18 2-4h2l2-4 12-13 8-7 3-3 4-3h2l2-4 11-6 12-6 14-5z" fill="#88DFF8"/>
<path transform="translate(323,801)" d="m0 0h3l-1 16v31l3 11 6 23 7 17 9 13 13 13 14 9 21 10 15 4 20 3h29l15-2 14-3 25-9 16-8 15-8 23-15 20-14 11-9 20-18 12-13 1-2h2v-2l5-2-3 5-10 14-13 15-14 14-4 5-5 5-13 12-8 7-1 2-5 3-17 12-21 12-17 8-18 7h-3v2l-16 4-15 2h-31l-11-1v-2l-8-1-15-4-24-11-11-7-7-6v-2l-5-2-3-3-1-3-4-4-6-10-1-5-3-1-9-26-3-23v-32l2-15h2l1-14h2z" fill="#A2B2F1"/>
<path transform="translate(599,613)" d="m0 0 23 1 36 4 34 7 27 8 12 5 13 6 14 7 11 6 12 7-1 2-12-6-15-7-21-7-22-4-1-1-19-3-12 1-22 1-32 5h-8l-7-2-5 2-7 6-10 3v3l33-3h10l27 3 1 2-25-1h-18l-20 1-27 2-16 4-20 6-8 3h-6l-1-1-3-24v-19l1-3 20-7 19-3 26-3z" fill="#C39564"/>
<path transform="translate(410,662)" d="m0 0 2 4-1 5h-2l-4 5 5-2 3 7 6 25 5 14 2 9-4 6-7 9-10 16 4-4 1-2h2l1-4 6-8 4-5h2l1 2v7l-8 10-2 3h-2l-2 4-8 14-8 16-5 11-5 16-2 5-1 13v27l4 15 2 5 2 1 4 7 5 5 3 1v2l9 2 25 3 19-3 11-3 11-5 9-4 19-12 10-7 9-7 2 1-10 8-17 12-11 7-10 6-16 7-11 3-12 2h-18l-11-2-15-6-9-7-7-8-5-10-4-14-1-14 2-15 2-10 6-21 11-25 10-21 10-13 11-16-1-6-4-13-5-17-3-12-3-2-10 8-7 6h-2l-2 4-13 14-8 8-3 7-6 11-10 22-5 17-5 20-4 32v23l1 16-2-3-2-9-1-9v-34l2-15 4-19-5 2-4 18-2 5-2 14h-2l-1 15v32l3 23 9 26 3 3 5 10 3 4v2l3 1v3l3 1v2l5 2 5 5 9 7 23 11 11 4 17 4v2h42l19-3 12-2v-2l28-11 21-11 13-8 11-8h2l2 6-15 10-17 10-25 12-23 8-24 5-7 1h-33l-24-6-17-7-9-6-11-7-10-9-7-6-9-11-7-10-9-16-6-15-4-20-2-18v-10l4-30 3-13 6-19 5-11 8-16 9-16 12-16 9-11 6-7 29-29 11-9z" fill="#0A1464"/>
<path transform="translate(538,492)" d="m0 0h19l13 3 12 6 13 10 13 13 13 17 8 14-1 2-11-18-2-2 2 5 8 15 10 24 2 8 4 10 1 7h-7l-13-26-4-9v-2h-2l-3-5v-3l-3-1-2-6h-2v-2h-2l-8-10-5-4-2-4-2-1v-2l-4-2-4-3v-2l-4-2-7-5-5-2v-2l-10-3-6-2h-13l-13 4-6 3h-2v3l-8 7-3 1-1 4-8 13-4 10-1 5h-2l-2 19v27l2 35 3 16 2 5 1 11h2l3 10v3h4l-2-8-2-4-1-5-1-2-1-6-2-2-1-11-1-9 3-3 9-4 3 1 1-2 2-1 2 1 1-2 2 1 1-2 1 4v19l3 24h6l24-8 18-4 2-1 47-3h18l33 2 7 1 8 3 18 3v2l10 2 7 2v2l5 1 16 8 1 2-5-1-18-7-9-4-24-6-34-5-10-1h-32l-40 6-22 5-21 9-15 9 2 9 2 7h-4l5 11 2 6 3 1 2 7-4-4-7-11-7-15-6-15-6-18-5-21-2-13-1-12-1-25v-19l2-22 5-19 7-14 9-11h2v-2l10-8 10-6z" fill="#043682"/>
<path transform="translate(709,641)" d="m0 0 23 4 24 8 12 6 13 6 1 2h3v2l6 2 6 5 5 5 7 6 9 7 3 3 2 4 2 1 2 4 5 5v2h2v3h2l1 4 2 1 8 14 5 11 3 12 3 9 2 10 1 8v28l-2 10h-2l-1 6-3 8-1 4h-2v4h-2l-1 5-7 9-5 5-2 4-7 4-5 6-4 1h-3l-10 4-5-1 4-5h2l2-4 6-5 9-12 10-17 6-19 1-12-1-21-6-25-8-19-7-14-10-13-9-11-9-10-15-13-14-10-17-11-23-11-13-7z" fill="#FDDFB7"/>
<path transform="translate(534,507)" d="m0 0h13l10 3 6 3v2l7 2 9 7v2l4 2 4 3v2l4 2 2 4 7 6 4 5v2h2v2h2l3 6 2 1 3 5v3h2l7 15 6 12 4 7v3l6-1-3-12-3-6-2-9-12-27-7-12 1-3 7 9 6 11 3 3 11 27 8 22 19 3 13 4v2l12 2 9 3 6 1-1-10 1-7h1l4 15 2 5 18 7 10 5-2 3-4 1-25-10-25-7-30-6-36-4-23-1-28 2-30 4-12 3-12 4-6 1-6 3-5 1-9 3 2 20 2 4 1 7 2 3 1 4 3 10-2 5-1-4h-2l-3-10v-3h-2l-3-15-2-5-2-12-2-35v-27l2-15 1-4h2v-5l5-12 7-11 2-4 8-7 3-1v-3l13-6zm0 6-9 3-10 7-10 11-8 17-7 21-2 21v21l1 16 36-12 30-7 23-2 34-1 1-5-6-25-5-12-5-10-7-10-8-10-7-7-8-6h-2v-2l-16-7-5-1z" fill="#0B1875"/>
<path transform="translate(529,429)" d="m0 0h19l17 2 26 9 16 8 14 9 13 10 12 11 7 7 11 14 9 12 10 17 8 16 8 21 7 24 3 13v21l-9-1-6-2 4-1 6 1-2-11-5-22-3-17-2-4v-3h-2l-6-12-9-13-13-16-11-12-14-14-11-9-15-11-16-9-18-7-16-4v-1h10l19 6 25 10 6 3 8 7 11 8 26 26-4-6-10-13-11-13-15-13-8-7-14-9-18-9v-2l-11-2-10-2-24-3-16 1-12 2-19 7-14 8-5 3-5 5-4 1-2 4-8 7-12 13-1 2h-2l-1 4-12 22-2 5h-2l-1 9-6 17-5 32-1 8v35l6 48 1 7-3-1-2-12-1-17-1-7-2-6-1-20h-2l-2 15h-1v-38l5-35 5-21 4-12 9-19 8-14 13-17 15-15 12-9 14-8 18-7 13-3z" fill="#0B207A"/>
<path transform="translate(453,554)" d="m0 0 1 4-3 11-1 11v52l2 14 7 30 7 22 10 23 5 10 10 19 6 10 2 5 1 6v16l-4 15-7 12-5-1-10-13-8-12-9-16-5-9-9-17-8-16-7-17 1-4 4 11-4-23-3-25v-5l4 5 6 10 5 10 8 12 9 12 9 10 1 4 7 1v3l5 1-4-7-3-5-5-14-7-16-6-21-5-24-3-17v-52l3-16z" fill="#089AC6"/>
<path transform="translate(451,634)" d="m0 0h2l3 9 3 17 4 8 2 12 7 14 5 12 5 11 6 13 12 22 10 15 5 6 4 4-1 2-7-6-7-10-14-22-5-9-5-10v-2h-2l4 9 6 12 6 11 5 8 8 14 9 10 20 20v2l4 2 12 12 3 6-6 9-19 19h-2l-1 3h-5l-8-7-7-8-4-4v-2h-2l-11-14-7-6-7-10-12-17v-3h-2l-14-26-6-11v-2h-2l-8-21-4-9 1-4 5 12 6 14 12 22 5 10 7 11 3 6 11 16 7 9 4 1 2-5 5-9 3-13v-16l-2-8-6-12-8-14-9-18-11-26-7-24-5-23z" fill="#075194"/>
<path transform="translate(366,718)" d="m0 0 4 1 5 8 5 14 1 15-3 12-4 11-5 8-6 13-5 19-2 19v21l3 14 5 15 7 11 8 10 2 1v2l3 1v2l4 2 11 7 11 5 7 2 17 2h17l21-2 17-5 9-4 11-5 13-7 17-12 13-11 10-9 5-6 6-5 9-11 8-10 10-14 6-9 6-10 2-3-1 7-7 12-4 5-3 5-6 8-7 8-3 6-8 7-4 5-10 10-9 8h-2v2l-16 12-19 12-26 12-10 3-14 4-23 2-24-2-13-4-15-8-11-9-9-10v-2h-2l-3-5v-3h-2l-7-16-3-10-1-8-1-31 2-11 4-15 8-18-1-3-5 1-2 4h-2v2l-5 2-2-6v-2l-7 2 1 5 6 3-2 6-4 6-7 14-1 8v19l2 23h-2l4 9 2 10 3 6 1 5-5-3-7-18-5-20-3-11v-33l2-14h-3l-1 2 1-5 4-16 4-4h2l-1 9-3 15-1 10v34l2 14 1 4-1-13v-23l4-32 7-28 6-16 7-15 6-11z" fill="#3E59DD"/>
<path transform="translate(671,755)" d="m0 0h8l5 3-6 20-7 18-5 12-10 19-6 10-1-3v-3l-4 6-5 5-9 10-11 12-12 12-10 7-1-2 6-14 7-15 5-11 6-15 2-6 8-4 2-7-3-7-2-5v-2l-4 2-4 6-1-2 8-16 5-9 7-7h2v-2l10-6 15-5z" fill="#3E59DD"/>
<path transform="translate(594,691)" d="m0 0h45l21 2 36 10 25 10-2 1v2l5 2 1 4-6-2-16-7-3 18-6 24-6 18-4 9-2-2v-4h2l-1-4 2-5 3-17 1-1-2-7-3-4-3-1v-2l-6-2-8-4-5-3v-2h-11l-4 4-9 30-3 3 1-8 4-11 2-8v-9l-3-6 1-13-2-5-13-1-7 2-2 2-4 19-4 5-1 2h-2v2l-3 1 2-12 5-25-10 2-32 5-24 7-19 8-4 1 5 9-4-2-9-9-4-8v-3h5l3 4h7l14-5 24-8 15-4z" fill="#081665"/>
<path transform="translate(813,823)" d="m0 0 1 3-5 10-7 10-8 10-5 6-10 7-15 8-11 4-36 4-20 2v2l20 4 15 2h26l12-2 7-3 6-1 3-3 14-10 17-17v3l-4 7-7 6-6 6 5 1 11-5 3 1 5-4 15-15 3-4 2-4 3-1-2 5-8 11-7 7-5 4h-2l-2 4-10 8-20 12-14 7-17 6-26 6-15 1-1-2 9-3h7v-2l13-5 16-7 1-2-9 4-26 9-27 6-20 2h-15l-9-1v-2h-5l1-5 9-12 8-7 9-6 22-4 38-4 16-3 12-5 11-6 8-6 9-10 8-11 8-14z" fill="#C29462"/>
<path transform="translate(625,699)" d="m0 0 13 2 3 5-1 14 3 5v9l-4 15-3 7v4l5-16 6-18 4-3h8l3 1v2l5 2 14 7v2l4 1 4 6 1 6h-2v8l-2 10-2 5v3h-2l1 8-5 13-10 21-8 13h-3l-6 7 1 4-4 3h-3l2-5 6-9 6-11 7-13 4-11 7-18 3-11 3-9-4-2h-8l-12 3-12 5-4 3h-2v2l-8 7-5 9-8 16-6 9-2 5-4 4h-2l1-6 4-5 5-10 5-8 10-25 4-14 3-6 2-11v-8l-5-1h-21l-4 1-2 12-3 12-4 11-3 9-6 13-1-3 4-8 8-24 3-18 4-6 2-6 3-14 5-4z" fill="#0D2185"/>
<path transform="translate(604,472)" d="m0 0 5 2 13 9 10 8 13 12 15 15 11 14 10 13 8 13 1 5h2l2 8v5l-14-1-11-3-9-4-8-7-9-10-14-22-8-12-9-11-10-10-11-7-11-5-13-4-9-2-10-1h-13l-17 3-16 6-13 9-10 10-9 13-8 16-6 17h-1l1-8 9-21 6-10 6-9h2l2-4 9-9 9-6 14-6 16-4 18-1 20 3 13 4 16 8 10 7v2l4 2 7 7 2 5h2l9 13 11 18 2 1v-7l-4-17-5-12-8-14-11-12-11-8z" fill="#079AC5"/>
<path transform="translate(408,674)" d="m0 0 3 1 4 14 4 17 5 14 2 9-4 6-7 9-10 16 4-4 1-2h2l1-4 6-8 4-5h2l1 2v7l-8 10-2 3h-2l-2 4-8 14-8 16-5 11-5 16-2 5-1 13v27l4 15 2 5 2 1 4 7 5 5 3 1v2l9 2 25 3 19-3 11-3 11-5 9-4 19-12 10-7 9-7 2 1-10 8-17 12-11 7-10 6-16 7-11 3-12 2h-18l-11-2-15-6-9-7-7-8-5-10-4-14-1-14 2-15 2-10 6-21 11-25 10-21 10-13 11-16-1-6-4-13-5-17-3-12-3-2-10 8-7 6h-2l-2 4-6 5 1-4 2-1 2-7 5-2 11-7z" fill="#0C2084"/>
<path transform="translate(649,1008)" d="m0 0h15l9 3 8 7 7 9 2 6v20l-3 9-10 11-12 6-12 1-9-2-10-6-7-8-5-12-1-10 2-11 5-10 5-6 8-5zm4 12-8 3-7 8-3 8v10l5 10 7 6 2 1h14l7-4 5-7 1-4v-15l-3-7-5-5-6-3z" fill="#FA4140"/>
<path transform="translate(572,1008)" d="m0 0h16l9 3 8 7 6 9 2 7v19l-3 9-7 9-9 6-5 2-13 1-9-2-10-6-6-7-4-8-2-7v-13l3-10 6-9 8-7zm5 12-9 3-7 8-2 5v15l4 8 7 6 3 1h13l8-4 5-8 1-3v-14l-3-8-7-6-8-3z" fill="#FB4241"/>
<path transform="translate(742,724)" d="m0 0 6 2 16 10 13 11v2l3 1 10 13 7 15 4 17v17l-4 13-8 13-7 7-13 8-12 6-9 3-3-1h2v-2l-31 4h-28l-6-1 3-3 31-6 14-5 13-5 17-8 10-7 10-9 6-8 4-10 1-5v-12l-3-14-5-9-10-13-11-10-10-7-10-6z" fill="#043782"/>
<path transform="translate(534,507)" d="m0 0h13l10 3 6 3v2l7 2 9 7v2l4 2 4 3v2l4 2 2 4 7 6 4 5v2h2v2h2l3 6 2 1 3 5v3h2l7 15 6 12 4 7v3l6-1-3-12-3-6-2-9-12-27-7-12 1-3 7 9 6 11 3 3 11 27 8 22 19 3 13 4v1l-8-1-14-3-16-1-11-2-11-1-7-5-2 4-6-25-4-12-7-14-7-10-8-10-10-9-6-4v-2l-9-3-7-3-5-1h-10l-9 3-10 7-9 10-8 17-6 17-2 1-1-3v-10l10-20 3-3 4-7 2-2 2-5 3-1v-3l13-6z" fill="#0A1776"/>
<path transform="translate(630,557)" d="m0 0 3 3 7 15h4l6-8 7 1 8 5 9 4 9 1h11l1-5h1l3 20 5 19 1 9-15-2-8-2v-2l-10-2-14-3-8-1-5-12-8-21-7-17z" fill="#065093"/>
<path transform="translate(513,626)" d="m0 0 2 1v22l3 24h6l24-8 18-4 2-1 47-3h18l33 2 7 1 8 3 18 3v2l10 2 7 2v2l5 1 16 8 1 2-5-1-18-7-9-4-24-6-34-5-10-1h-32l-40 6-22 5-21 9-15 9 2 9 2 7-5 1-6-15-1-1v-6l1-2-3-9-1-2-1-5-1-2-1-6-2-2-1-11-1-9 3-3 9-4 3 1 1-2 2-1 2 1 1-2 2 1z" fill="#041565"/>
<path transform="translate(617,697)" d="m0 0h10l15 2 6 2 5 3 1-3h9l27 9 5 3 1 6-2 14 1 9 1 6-8 25-4 9-2-2v-4h2l-1-4 2-5 3-17 1-1-2-7-3-4-3-1v-2l-6-2-8-4-5-3v-2h-11l-4 4-9 30-3 3 1-8 4-11 2-8v-9l-3-6 1-13-2-5-13-1-7 2-2 2-4 19-4 5-2 2-1-3 2-3h2l1-9 3-15 1-2z" fill="#071474"/>
<path transform="translate(324,793)" d="m0 0 1 2-3 8-2 14h-2l-1 15v32l3 23 9 26 3 3 5 10 3 4v2l3 1v3l3 1v2l5 2 5 5 9 7 23 11 11 4 17 4v2h42l19-3 12-2v-2l28-11 21-11 13-8 11-8h2l2 6-15 10-17 10-25 12-23 8-24 5-7 1h-33l-24-6-17-7-9-6-11-7-10-9-7-6-9-11-7-10-9-16-6-15-2-8v-5h3l1-50 2-15 6-16z" fill="#131F77"/>
<path transform="translate(698,1008)" d="m0 0h31l9 3 6 7 2 6v11l-4 8-7 5-6 2-17 1-1 28-5 1h-7l-1-1v-41l8-1 22-1 3-5-1-7-7-2-25-1z" fill="#FFE0B7"/>
<path transform="translate(744,638)" d="m0 0 18 8 18 11 16 11 10 8 10 9 8 7 7 7 11 15 10 17 8 17 6 25 1 10v17l-2 17-6 22-8 15-1-2h-2l-2 4-1 3-3-1 4-6v-4h2l1-5 4-8 4-12h2l-1-3 2-7v-31l-2-13-2-7-7-21-8-15v-2l-2-1-3-5v-2h-2v-3h-2l-3-4v-2l-4-2v-3l-4-2v-3l-3-1-5-5-8-6-10-10-10-6v-2h-3l-4-4-16-9-22-11 1-3z" fill="#202567"/>
<path transform="translate(531,621)" d="m0 0 4 1h-3l5 10 4 6 8 7 9 6 11 6 4 1 13 1v1l-18 1-16 4-20 6-8 3h-6l-1-1-3-24v-19l1-3z" fill="#7B645F"/>
<path transform="translate(561,455)" d="m0 0h10l19 6 25 10 6 3 8 7 11 8 25 25v3h2v2h3l-4-8h2l-6-11 4 1 12 18 11 20 9 23 6 20 5 20v21l-9-1-6-2 4-1 6 1-2-11-5-22-3-17-2-4v-3h-2l-6-12-9-13-13-16-11-12-14-14-11-9-15-11-16-9-18-7-16-4z" fill="#0A1875"/>
<path transform="translate(643,866)" d="m0 0h28v1l-8 1-3 7-5 13-4 25-1 5-13-1v-2l-14-1-13-2-4-2v-3l7-6 7-8 8-9 11-15z" fill="#043682"/>
<path transform="translate(537,488)" d="m0 0h16l19 6 3 3-5-1-13-3h-19l-12 4-12 7-3 3h-2l-1 3h-2v2l-5 5-7 9-5 11-5 19-2 22v19l1 25 2 19 5 23 5 16 6 16 7 16 5 9 10 15 10 14 11 12v2l4 2v2l4 2 10 9 11 9 5 5-1 5-12 17-3 3-6-2-1-3-4-2-7-6-20-20 6 1 5 4v2l4 2 7 5v2l4 1 6 3 5 3h5l4-2 2-6 2-5-3-5-11-10-7-5-3-3v-2l-4-2-15-15-4-6-9-12-4-8-8-11-7-14-6-15-8-32-3-14-2-16-1-31v-22l2-18 4-15 6-14 8-11 9-9 14-10 9-5z" fill="#075194"/>
<path transform="translate(650,729)" d="m0 0h6l17 7 10 8 2 4h2l-1 11-7 23-7 18-8 15-2 1 2-6 3-7 5-11 7-20 4-14-4-2h-8l-12 3-12 5-4 3h-2v2l-8 7-2 1 2-7 8-16 4-16 3-7z" fill="#233BAB"/>
<path transform="translate(846,850)" d="m0 0 1 2-9 13-8 8-5 4h-2l-2 4-10 8-20 12-14 7-17 6-26 6-15 1-1-2 9-3h7v-2l13-5 16-7 1-2-9 4-5 2-3-1 12-6 10-4 10-5 4-1 3-3 14-10 17-17v3l-4 7-7 6-6 6 5 1 11-5 3 1 5-4 15-15 3-4 2-4z" fill="#BB9268"/>
<path transform="translate(513,626)" d="m0 0 2 1v22l3 24 6 1-3 2-14 6h-5l-5-10-1-5-1-2-1-6-2-2-1-11-1-9 3-3 9-4 3 1 1-2 2-1 2 1 1-2 2 1z" fill="#043682"/>
<path transform="translate(614,602)" d="m0 0 8 5 17 2 5 1 16 1 30 7 13 4 6 1-1-10 1-7h1l4 15 2 5 18 7 10 5-2 3-4 1-25-10-25-7-30-6-36-4-12-1v-1l-17-1-4-1 1-3 24-1z" fill="#081364"/>
<path transform="translate(478,720)" d="m0 0h2l6 12 6 11 9 14 7 10 5 7 6 5 3 5 10 8 9 9 3 2v2l3 1v2l4 2 5 5 6 2 8-10 7-11-1-4-12-11 2-1 7 2 3 6 5 4-2 6-10 15-7 9h-5l1 5-11 13-5 5-8 7-5 5-5 4-7-6-8-7-5-5v-2h-2l-8-11-2-4-4-2-1-4-4-2 1-2 8 7 8 10 1 3h2l7 8 1 3 3 1v2l4 2 4 4h5l23-23 4-8-6-8-40-40-8-13-6-11-4-7-6-10-6-13z" fill="#043582"/>
<path transform="translate(614,536)" d="m0 0 5 5 8 13 4 5 11 27 8 22 19 3 13 4v1l-8-1-14-3-11-2-3-3-4 2-16-2-4-2-5-10-1-6-6-24h-2l-5-10-3-5v-2h-2l-4-6 1-2 9 10v2h2v2h2l3 6 2 1 3 5v3h2l7 15 6 12 4 7v3l6-1-3-12-3-6-2-9-12-27-7-12z" fill="#0B2384"/>
<path transform="translate(440,757)" d="m0 0 4 1 10 18v4h-4l-8-13-4 2-14 13-6 8-10 16-6 15-5 15-2 11v10l2 11 7 16 7 6 13 5 7 2-1 3h-8l-9-3v-2l-4-2-3-1v-2l-4-1v-2l-2-1-6-9-3-12v-22l4-23 5-13 4-5 7-11 4-8 6-7 11-7z" fill="#0B1562"/>
<path transform="translate(559,438)" d="m0 0 12 1 15 4v2l9 3 9 5 18 12 5 5 15 13 9 10 9 12 7 9-1 2-27-27-15-11-6-5-26-10 4-2-4-4v-2l-8-4v-2l-9-3-16-6z" fill="#A0B1F2"/>
<path transform="translate(651,723)" d="m0 0h8l3 1v2l5 2 14 7v2l4 1 4 6 1 6h-2v8l-2 10-2 5v3h-2l1 8-5 13-10 21-8 13h-3l-6 7 1 4-4 3h-3l2-5 6-9 6-11 2-4 3-3 8-16 7-18 6-20 2-11h-2l-5-6-7-5-17-7h-6l-3 5-3 9-2 10-2 4h-2l2-10 7-22z" fill="#0D2185"/>
<path transform="translate(578,608)" d="m0 0h12l-1 3 22 1-1 2h-11l-28 2-30 4-12 3-12 4-6 1-6 3-5 1-9 3-1-2 1-4 15-6 19-6 30-7z" fill="#0F1A67"/>
<path transform="translate(324,793)" d="m0 0 1 2-3 8-2 14h-2l-1 15v32l3 23 9 26 3 3 5 10 3 4v2l3 1v3l3 1v2l5 2 5 5 9 7 23 11 11 4 17 4v1h-9l-13-4-8-3-9-2-5-2-11-7-10-9-7-6-9-11-7-10-9-16-6-15-2-8v-5h3l1-50 2-15 6-16z" fill="#101C73"/>
<path transform="translate(420,531)" d="m0 0 1 3-5 17-5 35v35l6 48 1 7-3-1-2-12-1-17-1-7-2-6-1-20h-2l-2 15h-1v-38l5-35 4-17 1 2 5-2z" fill="#152279"/>
<path transform="translate(451,634)" d="m0 0h2l3 9 3 17 4 8 2 12 7 14 5 12 5 11 6 13 12 22 10 15 5 6 4 4-1 2-7-6-7-10-14-22-5-9-5-10v-2h-2l-1 3-5-12-2-1-7-17-7-24-5-23z" fill="#065295"/>
<path transform="translate(561,455)" d="m0 0h10l19 6 25 10 6 3 8 7 11 8 25 25-2 1-3-1 4 6 9 11 8 11 2 6-3-3-10-13-8-10-11-12-14-14-11-9-15-11-16-9-18-7-16-4z" fill="#05438C"/>
<path transform="translate(499,1008)" d="m0 0h14v43l-1 1h-13z" fill="#FFE0B7"/>
<path transform="translate(441,747)" d="m0 0 3 4 15 28 3 5v2h2l4 7 9 13 6 8 2 5 3 3 7 8 7 9v2h2l7 8 9 8 3 3-7-1-15-16-20-20-9-11-11-14-10-17 3-1-4-11-2-6-7-13z" fill="#0C2079"/>
<path transform="translate(744,638)" d="m0 0 18 8 18 11 16 11 10 8 10 9 7 6-1 6-4-1-5-5-8-6-10-10-10-6v-2h-3l-4-4-16-9-22-11 1-3z" fill="#161F69"/>
<path transform="translate(817,859)" d="m0 0v3l-4 7-7 6-5 5-5 3-10 8-11 7-3 2h-3l-2 4-4 4-2 1 6-1 8-4h4v2h-2v2l-17 6-26 6-15 1-1-2 9-3h7v-2l13-5 16-7 1-2-9 4-5 2-3-1 12-6 10-4 10-5 4-1 3-3 14-10z" fill="#AC907F"/>
<path transform="translate(513,718)" d="m0 0 7 6 6 5 10 14 10 12 8 7 8 8 4 3v2l4 2 10 9-1 3-5-2-1-5-7-1-5-2-11-10-6-5-7-8-12-15-5-8-3-9-4-4z" fill="#0E1F7A"/>
<path transform="translate(499,1066)" d="m0 0h39v13l-7 1h-31l-1-1z" fill="#FFE0B7"/>
<path transform="translate(477,449)" d="m0 0 1 2 7-1-5 4-5 3-5 5-4 1-2 4-8 7-12 13-1 2h-2l-1 4-12 22-2 5h-2l-1 9-3 3-2 6-5 2 1-9 4-11 8-17 8-14 5-5 5-4 2-2v2h2l2-4 9-8 4-4h2v-4h5v-2h2v-3l2-1v-2h2z" fill="#0C1769"/>
<path transform="translate(471,710)" d="m0 0 3 3 3 7v3h2l8 17 4 6 4 7 5 9 2 9v16l-1 10-2 7h-2l-1 5-5 7-3 2-4-1-8-11-12-17v-3h-2l-14-26-6-11v-2h-2l-8-21-4-9 1-4 5 12 6 14 12 22 5 10 7 11 3 6 11 16 7 9 4 1 2-5 5-9 3-13v-16l-2-8-6-12-8-14-9-18z" fill="#05629F"/>
<path transform="translate(343,759)" d="m0 0 1 3-4 14-5 20-4 32v23l1 16-2-3-2-9-1-9v-34l2-15 4-19-4 2 1-6 5-9h2l1 5 1-3h2l1-6z" fill="#12278E"/>
<path transform="translate(615,657)" d="m0 0h18l33 2 7 1 8 3 18 3v2l10 2 7 2v2l5 1 16 8 1 2-5-1-18-7-9-4-24-6-34-5-10-1-32-1-11-1v-1z" fill="#11266B"/>
<path transform="translate(492,438)" d="m0 0 2 1-3 2-1 6h-2l-1 3-9 1-1-1-1 2h-2l1 3h-3v3h-2v2h-5v4l-5 2-2 4-9 8-1 2-4 1-5 3 2-4 7-9 14-14 12-9 14-8z" fill="#0D1665"/>
<path transform="translate(682,773)" d="m0 0h2v3h-2l1 8-5 13-10 21-8 13h-3l-6 7 1 4-4 3h-3l2-5 6-9 6-11 2-4 3-3 8-16 7-18 2-5z" fill="#10207D"/>
<path transform="translate(520,432)" d="m0 0h33l-4 2 21 4v1l-16-1-13-2-16 1-12 2-19 7-6 3v-2h2v-6l5-4 8-3h5v2l7-2h5z" fill="#0A1975"/>
<path transform="translate(525,512)" d="m0 0 3 1-1 3-11 7-10 11-8 17-6 17-2 1-1-3v-10l10-20 3-3 4-7 2-2 2-5 3-1v-2l7-3z" fill="#0B1563"/>
<path transform="translate(562,929)" d="m0 0h2l2 6-15 10-17 10-3 1 1-3 3-3-7 4-5 2-12 5-18 7-4-1 28-11 21-11 13-8z" fill="#152380"/>
<path transform="translate(405,608)" d="m0 0h1v5h2l3 25 1 1 1 7v17l-5 1-3-19-1-8v-15z" fill="#071A77"/>
<path transform="translate(330,914)" d="m0 0 2 2 5 10 3 4v2l3 1v3l3 1v2l5 2 5 5 9 7 23 11 11 4 17 4v1h-9l-13-4-8-3-9-2-5-2-11-7-10-9-7-6-9-11-5-7z" fill="#2639A1"/>
<path transform="translate(540,808)" d="m0 0 4 2 7 6v2l3 1 2 5h2l-1 4-11 14-8 7-12 11-3 1-5-5-10-9-4-4v-2h-2l-8-11-2-4-4-2-1-4-4-2 1-2 8 7 8 10 1 3h2l7 8 1 3 3 1v2l4 2 4 4h5l23-23 4-8-6-8-8-8z" fill="#043582"/>
<path transform="translate(538,453)" d="m0 0h23l5 1-3 2 14 3 18 7 9 5-3 1-12-5-24-7-18-2-21 1v-3z" fill="#089BC6"/>
<path transform="translate(622,466)" d="m0 0 6 1 4 4 4 1 13 13v2h2l5 5 5 6 3 1v3l4 7v4l3 7-4-1v-2h-2l1-3-7-9-11-14-10-11-11-9z" fill="#11268B"/>
<path transform="translate(605,730)" d="m0 0h1l-1 13-4 13-6 18-5 8-5 3-1-2 8-17 6-19 3-13 4-2z" fill="#0A1674"/>
<path transform="translate(817,859)" d="m0 0v3l-4 7-7 6-5 5-5 3-10 8-11 7-11 6-8 4-4-1 12-6h-3l-11 5-3-1 12-6 10-4 10-5 4-1 3-3 14-10z" fill="#5B5868"/>
<path transform="translate(414,551)" d="m0 0h1l-1 13-3 22v35l6 48 1 7-3-1-2-12-1-17-1-7-2-6-1-14v-43l1-5 3-16z" fill="#1F51B4"/>
<path transform="translate(532,950)" d="m0 0h3l-1 3-8 6-22 10-14 5-4-1v-2l-7 2h-6l4-2 19-5 17-7 10-4 8-4z" fill="#122284"/>
<path transform="translate(813,823)" d="m0 0 1 3-5 10-7 10-8 10-5 6-10 7-15 8-11 4-36 4-17 1 2-2 38-4 16-3 12-5 11-6 8-6 9-10 8-11 8-14z" fill="#C69763"/>
<path transform="translate(428,713)" d="m0 0 2 3 10 23 12 22 5 10 7 11 3 6 11 16 5 7-1 3-6-8-12-17v-3h-2l-14-26-6-11v-2h-2l-8-21-4-9z" fill="#07579A"/>
<path transform="translate(860,813)" d="m0 0 3 4 1 4-5 18-8 15-1-2h-2l-2 4-1 3-3-1 4-6v-4h2l1-5 4-8 4-12h2l-1-3z" fill="#192A82"/>
<path transform="translate(561,455)" d="m0 0h10l19 6 25 10 6 3 8 7 11 8 1 2-6-2-11-8-4-4-7-4-4-1-1 2-17-9-17-6-13-3z" fill="#115AA7"/>
<path transform="translate(434,495)" d="m0 0 3 1-2 6-9 18h-2l-1 9-3 3-2 6-5 2 1-9 4-11 7-6 3-8 5-9z" fill="#091877"/>
<path transform="translate(339,771)" d="m0 0h1l-1 9-4 16-4 32v23l1 16-2-3-2-9-1-9v-34h1l1 10 4-27 4-17z" fill="#233BAB"/>
<path transform="translate(640,847)" d="m0 0h2l-2 5-8 10-9 11-18 20-15 15-8 7-5 5-2 1-3 5-4 3-4-1 3-3h3l2-4 12-11 8-7 5-5 11-12 10-10 9-11 10-14z" fill="#4662EC"/>
<path transform="translate(529,429)" d="m0 0h19l17 2 3 2-3 3-12-2v-2l-31 1-2-1v2l-12 2v-2l-2-1 13-3z" fill="#202A74"/>
<path transform="translate(377,963)" d="m0 0 9 2 21 7 20 2 28 1v1h-38l-14-2 8 2v2l-16-4-14-6-4-3z" fill="#213295"/>
<path transform="translate(614,536)" d="m0 0 5 5 8 13 3 3 4 14 6 14 1 6h-2l-5-10-12-28-8-14z" fill="#071474"/>
<path transform="translate(520,786)" d="m0 0 4 1v2l4 2 11 11 8 7 5 5 6 5 4 2v1h-5l-1 2-3-5-2-1v-2l-4-2-5-5-6-3-7-8-9-9z" fill="#0B2484"/>
<path transform="translate(590,783)" d="m0 0 1 2-7 14-12 19-10 13h-2l-2 5-8 9h-2l-2 4-3 1v2l-8 7-6 6-2-1 22-22h2l2-4 9-11 10-13 5-9 6-10z" fill="#0D2185"/>
<path transform="translate(318,817)" d="m0 0h1l-1 27 2 32 4 19 6 17-1 2-4-9-6-18-3-23v-32z" fill="#4561EB"/>
<path transform="translate(627,777)" d="m0 0h4l-6 15-7 12-4 6-2 5-4 4h-2l1-6 4-5 5-10 5-8 5-12z" fill="#12278E"/>
<path transform="translate(797,732)" d="m0 0 4 4 12 20 7 18 2 14-1 19-3 10-3 6-1-3 3-8 2-14-1-19-4-14-5-11-10-17z" fill="#C69763"/>
<path transform="translate(629,488)" d="m0 0 4 2 9 7 3 2v2l4 2 9 10 11 13 10 13 4 7-1 2-8-11-11-14-12-13-14-14-8-7z" fill="#055C9B"/>
<path transform="translate(489,656)" d="m0 0 2 4 1 11h2l3 10v3h2l5 14 9 19 2 6 3 1 2 7-4-4-7-11-7-15-6-15-6-18-1-4z" fill="#072E83"/>
<path transform="translate(331,778)" d="m0 0h2l-1 9-3 15-1 10-3 2v-8l1-5h-3l-1 2 1-5 4-16z" fill="#405BE1"/>
<path transform="translate(324,793)" d="m0 0 1 2-3 8-2 14h-2l-1 15v32l1 17h-2l-1-6v-50l2-15 6-16z" fill="#162B94"/>
<path transform="translate(633,859)" d="m0 0 1 3-6 8-3 7-11 8-7 8-11 11-4 5-3 1-5 5h-3l7-7 8-7 15-15 7-8 12-14z" fill="#182E98"/>
<path transform="translate(620,654)" d="m0 0h10l27 3 1 2-25-1h-36v-2z" fill="#A37F61"/>
<path transform="translate(503,482)" d="m0 0m-1 1m-3 1h3l-1 3-11 7-11 11-9 13-8 16-6 17h-1l1-8 9-21 6-10 6-9h2l2-4 9-9z" fill="#089BC6"/>
<path transform="translate(477,449)" d="m0 0 1 2 7-1-5 4-5 3-5 5-4 1-2 4-8 7-12 13-1 2h-2l-1 4-3 3-1-3 4-2 1-5 5-5h2l1-4 10-9 4-4h2v-4h5v-2h2v-3l2-1v-2h2z" fill="#213AAA"/>
<path transform="translate(575,1038)" d="m0 0h8l3 2v6l-3 4h-7l-3-3v-7z" fill="#F94843"/>
<path transform="translate(558,769)" d="m0 0 4 1 4 3v2l4 2 10 9-1 3-5-2-1-5-7-1-5-2-4-4v-5z" fill="#0D1E79"/>
<path transform="translate(330,914)" d="m0 0 2 2 5 10 3 4v2l3 1v3l3 1v2l5 2 5 5 9 7 2 2-5-1-5-2-13-12-9-11-5-7z" fill="#3D57D0"/>
<path transform="translate(652,1038)" d="m0 0h8l2 2v7l-3 3h-6l-4-4 1-7z" fill="#F94742"/>
<path transform="translate(559,438)" d="m0 0 12 1 15 4v2l9 3 9 5 12 8-2 1-10-6-9-4-7-4-29-9z" fill="#4A67F4"/>
<path transform="translate(615,657)" d="m0 0h18l15 1 5 2v1h-15l-32-1-11-1v-1z" fill="#042C78"/>
<path transform="translate(405,608)" d="m0 0h1v5h2l1 6v23l-2 1v-2h-2l-1-4v-15z" fill="#071569"/>
<path transform="translate(662,500)" d="m0 0 4 1 12 18 11 20 1 4h-2l-5-7-5-10-3-5v-3h-3l-2-4v-3h-2z" fill="#141B60"/>
<path transform="translate(817,859)" d="m0 0v3l-4 7-7 6-5 5-5 3-10 8h-3l2-2-1-2 11-7 12-11z" fill="#786360"/>
<path transform="translate(418,676)" d="m0 0 2 3 4 12 5 9v4h2l3 14-1 3-4-9v-3h-2l-3-4-3-16-3-9z" fill="#9FB9F3"/>
<path transform="translate(506,623)" d="m0 0h5l2 5-7 2-15 5-1-2 1-4z" fill="#0B1667"/>
<path transform="translate(489,825)" d="m0 0 3 1 10 13v2h2l7 8 9 8 3 3-7-1-15-16-6-7-1-5h-3l-2-3z" fill="#102386"/>
<path transform="translate(458,977)" d="m0 0m-45 1h45v2l-3 1h-33l-9-2z" fill="#0B1561"/>
<path transform="translate(605,730)" d="m0 0h1l-1 13-3 10-4 3-2 4-1-4 4-13 2-9 4-2z" fill="#0F1C76"/>
<path transform="translate(401,973)" d="m0 0 16 2 44 1-3 2-37 1-10-1v-2l-8-1z" fill="#091879"/>
<path transform="translate(360,721)" d="m0 0h3l-2 5-6 11-10 22-1-3 2-5v-7l7-13 5-7h2z" fill="#142890"/>
<path transform="translate(524,433)" d="m0 0h23l8 2 15 3v1l-16-1-13-2-16 1-8 1 3-3z" fill="#243BAD"/>
<path transform="translate(407,582)" d="m0 0h1v31h-2l-2 15h-1v-38h1l1 10 1 2v-16z" fill="#1F2B83"/>
<path transform="translate(639,491)" d="m0 0 5 2 21 21-2 1-5-1-5-6-5-5-3-2v-2l-2-1 1-3-4-1z" fill="#104499"/>
<path transform="translate(618,914)" d="m0 0 17 2 6 2v5l-9-1-16-3v-1l5-1z" fill="#101D7A"/>
<path transform="translate(682,773)" d="m0 0h2v3h-2l1 8-5 13-3 4v-2h-3l8-24z" fill="#0D2084"/>
<path transform="translate(346,746)" d="m0 0h1l-1 7-5 14h-2l-1 4h-1v-6h-2l-2 5-2 2 1-5 3-5 5-5v-3h2l1-4z" fill="#071576"/>
<path transform="translate(508,521)" d="m0 0 1 3-5 6-6 10-9 18h-1v-5l5-12 7-11 2-4z" fill="#071474"/>
<path transform="translate(486,558)" d="m0 0h1v11l-2 19 1 37-2-1-1-20v-27l2-15z" fill="#0D2185"/>
<path transform="translate(581,916)" d="m0 0 2 1-1 2 2 1-7 7-10 7-3-2v-3l5-2 4-3 2-4z" fill="#0B1464"/>
<path transform="translate(512,685)" d="m0 0 3 1-7 4 2 9 2 7-5 1-6-15 2-1 1-2z" fill="#06146C"/>
<path transform="translate(635,469)" d="m0 0 5 3 13 13 9 11-1 3-7-8-3-2v-2h-2l-7-8-7-7z" fill="#0E1A63"/>
<path transform="translate(649,830)" d="m0 0 2 1-3 9-5 7-7 1v2l-3-1 3-4h2l2-4 7-8z" fill="#4D69F9"/>
<path transform="translate(534,507)" d="m0 0h13l3 2-12-1v2h-2v2l4 1-12 2-1-2-9 2-5 1 4-3 12-5z" fill="#0C1D7D"/>
<path transform="translate(703,669)" d="m0 0 9 2 4 1v2l5 1 16 8 1 2-5-1-18-7-9-4-4-2z" fill="#04317D"/>
<path transform="translate(831,835)" d="m0 0h1v6l-11 18-5 5v-3-3l10-15z" fill="#CC9B63"/>
<path transform="translate(471,710)" d="m0 0 3 3 3 7v3h2l8 17 4 6 4 7 5 9v2l-3-1-6-12-8-14-9-18z" fill="#055B9B"/>
<path transform="translate(721,632)" d="m0 0 9 2 10 2 4 3-2 2-4 1-17-7z" fill="#071977"/>
<path transform="translate(539,944)" d="m0 0h2v2l-13 8-5 2-12 5-18 7-4-1 28-11 21-11z" fill="#3A55D7"/>
<path transform="translate(434,495)" d="m0 0 3 1-2 6-9 18h-2l-1 9-2 2 2-12 3-7 2-6 5-9z" fill="#2039A8"/>
<path transform="translate(600,894)" d="m0 0 1 3-11 11-8 7-5 5-2 1-3 5-4 3-4-1 3-3h3l2-4 12-11 8-7 5-5z" fill="#3852D3"/>
<path transform="translate(311,875)" d="m0 0h5v6l3 1 3 11 2 9-2-2-3-8v-3l-3-1v-3h-2l-1 2-2-7z" fill="#172789"/>
<path transform="translate(495,437)" d="m0 0 4 1 4 2 8-1-4 2-13 5-6 3v-2h2v-6z" fill="#1A2D96"/>
<path transform="translate(634,757)" d="m0 0 2 3 3-2-2 6-6 13-3 1-1-4 5-13z" fill="#0C1F83"/>
<path transform="translate(696,577)" d="m0 0 2 4 8 33 1 8h-7l-6-2 4-1 6 1-2-11-5-22z" fill="#043682"/>
<path transform="translate(575,497)" d="m0 0 5 1 6 4 8 5 6 7 5 5 8 9 1 4-5-5-9-10-7-7-13-9z" fill="#075194"/>
<path transform="translate(479,887)" d="m0 0 4 1-5 4-14 6-5-2 3-3 10-3z" fill="#0E1762"/>
<path transform="translate(562,929)" d="m0 0h2l2 6-12 8-2-1 2-4 1-4z" fill="#162482"/>
<path transform="translate(343,759)" d="m0 0 1 3-3 9h-2l-1 5-4 2-1-5-3 5-1-2 6-11h2l1 5 1-3h2l1-6z" fill="#102489"/>
<path transform="translate(587,610)" d="m0 0 8 1 16 1-1 2h-11l-21 1 1-4z" fill="#061A75"/>
<path transform="translate(609,470)" d="m0 0 9 2 11 9 11 8 1 2-6-2-11-8-4-4-11-6z" fill="#265DC3"/>
<path transform="translate(525,865)" d="m0 0 2 1-10 8-17 12-11 7-2-1 8-6 15-10 10-7z" fill="#0D2185"/>
<path transform="translate(511,516)" d="m0 0h2v2l-8 7-3 1-1 4-8 13-4 10-1-3 3-9 11-17z" fill="#0D2185"/>
<path transform="translate(774,658)" d="m0 0 7 3 5 3 2 5 5 1 5 4 2 5-3-1-5-5-7-4v-2h-3l-4-4-5-4z" fill="#2E3883"/>
<path transform="translate(632,740)" d="m0 0 5 1v5l-4 3h-5l-1-1 1-7z" fill="#3E59DD"/>
<path transform="translate(752,650)" d="m0 0 9 2 9 6 8 4 3 2-1 2-12-6-15-7-3-2z" fill="#AF9892"/>
<path transform="translate(411,631)" d="m0 0h1l5 38 1 7-3-1-2-12-1-17-1-7z" fill="#4763EE"/>
<path transform="translate(463,785)" d="m0 0h2l13 19 5 7-1 3-6-8-12-17z" fill="#055C9B"/>
<path transform="translate(333,771)" d="m0 0h1v7l4-2-3 13-4 2 1-9 1-4-4 2 2-5z" fill="#172D97"/>
<path transform="translate(541,759)" d="m0 0 6 2 4 5 3 2 3-3 3 4-2 1-1 4-4-2-5-4-7-8z" fill="#0E2B82"/>
<path transform="translate(622,466)" d="m0 0 6 1 4 4 4 1 5 6-5 1-11-10z" fill="#1E39A6"/>
<path transform="translate(409,633)" d="m0 0h1l2 6 1 7v9h-2l-2-6-1-5-3 1v-4l3 1z" fill="#0E3A89"/>
<path transform="translate(377,963)" d="m0 0 9 2 12 4v1l-7 2-10-4-4-3z" fill="#172580"/>
<path transform="translate(633,859)" d="m0 0 1 3-6 8-3 7-5 4h-2l1-4 11-13z" fill="#0A197B"/>
<path transform="translate(662,500)" d="m0 0 4 1 10 15-1 3-3-1-2-4v-3h-2z" fill="#0F1762"/>
<path transform="translate(634,479)" d="m0 0 5 1 7 7 2 3v3l-4-2-7-6-3-4z" fill="#87CAF7"/>
<path transform="translate(477,449)" d="m0 0 1 2 7-1-5 4-5 3-5 5-5 2v-4h5v-2h2v-3l2-1v-2h2z" fill="#152B92"/>
<path transform="translate(609,529)" d="m0 0 6 4 9 13 5 9-1 2-11-18-2-2-2 2-4-8z" fill="#092A83"/>
<path transform="translate(660,818)" d="m0 0 1 4-6 10-4 6 1 4-4 3h-3l2-5 6-9 6-11z" fill="#13278F"/>
<path transform="translate(407,578)" d="m0 0 1 4-1 4v16l-2 3-1-5v-19z" fill="#0B1563"/>
<path transform="translate(827,706)" d="m0 0h6l4 5v2h2v7h-2l-1-4h-2v-3h-2l-3-4v-2z" fill="#323570"/>
<path transform="translate(564,780)" d="m0 0 9 2 3 6 5 4-2 4-7-8-8-7z" fill="#092983"/>
<path transform="translate(597,444)" d="m0 0 5 1 15 9 3 2-1 3-2-1v-2l-4-1-6-3-10-7z" fill="#151B60"/>
<path transform="translate(384,963)" d="m0 0 9 3 18 5 5 1v1h-9l-13-4-10-4z" fill="#3853D3"/>
<path transform="translate(561,455)" d="m0 0h10l15 5 1 3-10-3-16-4z" fill="#056FA8"/>
<path transform="translate(329,784)" d="m0 0h2l-4 20-1-3h-3l-1 2 1-5 2-6 2-1z" fill="#5F79F4"/>
<path transform="translate(846,850)" d="m0 0 1 2-9 13-8 8-2-1 4-5 5-5 2-4 3-3 2-4z" fill="#846A5F"/>
<path transform="translate(780,899)" d="m0 0 2 2-3 3-11 4-3 2-5-1 4-3 15-6z" fill="#FFE0B7"/>
<path transform="translate(861,822)" d="m0 0h1l-1 10-3 9h-3l2-9 2-6z" fill="#121B68"/>
<path transform="translate(535,434)" d="m0 0h9l17 2 9 2v1l-16-1-19-3z" fill="#255DC3"/>
<path transform="translate(779,903)" d="m0 0m-4 1h4v2h-2v2l-11 4-4-1 3-2z" fill="#AC8A6F"/>
<path transform="translate(640,478)" d="m0 0 4 2 6 7-2 4-10-11z" fill="#093B8C"/>
<path transform="translate(559,438)" d="m0 0 12 1 15 4-4 1h-7l-11-4-5-1z" fill="#4563EC"/>
<path transform="translate(519,430)" d="m0 0h10v1h-9v3l-12 2v-2l-2-1z" fill="#1B246D"/>
<path transform="translate(815,862)" d="m0 0 1 3-6 7-8 7-1-2 7-8z" fill="#A27E61"/>
<path transform="translate(860,813)" d="m0 0 3 4 1 4-2 3-3 3h-2l-1 5-2-1 3-8h2l-1-3z" fill="#515287"/>
<path transform="translate(596,552)" d="m0 0 3 3v2h3v3h2l1 5-3 3-7-14z" fill="#141C68"/>
<path transform="translate(538,509)" d="m0 0h7l5 3-1 3-13-3v-2z" fill="#0C145F"/>
<path transform="translate(841,860)" d="m0 0 2 1-7 8-5 5-9 8v-3l5-5 10-9z" fill="#0B247A"/>
<path transform="translate(330,772)" d="m0 0 1 2-5 14-3 9h-1l1-9 3-9h2l1-6z" fill="#081677"/>
<path transform="translate(418,676)" d="m0 0 2 3 4 12 3 13 1 5-4-4-3-16-3-9z" fill="#3E5EE0"/>
<path transform="translate(407,565)" d="m0 0 2 1 1 8-1 3v5l-2-3-2 1 1-12z" fill="#1B2574"/>
<path transform="translate(816,877)" d="m0 0 2 1-6 5-6 2-8-1v-2h7z" fill="#FAB965"/>
<path transform="translate(848,852)" d="m0 0h2l-1 5-7 9-2-2 2-5h3l1-4z" fill="#0D1665"/>
<path transform="translate(561,844)" d="m0 0h4l1 5-1 2-4 1-3-1 1-5z" fill="#3E59DD"/>
<path transform="translate(331,778)" d="m0 0h2l-1 7-3-1-1 7-3 1 1-7 2-5z" fill="#3651CF"/>
<path transform="translate(583,536)" d="m0 0 6 2 3 5 1 7-5-5-5-7z" fill="#0F1865"/>
<path transform="translate(324,902)" d="m0 0 2 3 5 13v2l-3-1-5-10h2z" fill="#1E2E89"/>
<path transform="translate(622,878)" d="m0 0m-1 1m-1 1m-2 1 2 1-17 17-2 3-1-3 17-17z" fill="#06126B"/>
<path transform="translate(324,793)" d="m0 0 1 2-3 8-2 14h-2v-10l5-13z" fill="#233AAC"/>
<path transform="translate(451,470)" d="m0 0v3l-3 7-4 1-5 3 2-4 5-5z" fill="#0B1462"/>
<path transform="translate(414,551)" d="m0 0h1l-1 13-2 3-1 6-2-2 3-16z" fill="#1B42A8"/>
<path transform="translate(351,943)" d="m0 0 8 6 8 5-3 1-5-2-7-6-2-3z" fill="#3850C4"/>
<path transform="translate(816,689)" d="m0 0h5l2 2-1 6-4-1-3-4z" fill="#162275"/>
<path transform="translate(420,531)" d="m0 0 1 3-5 17h-1v-10l-3 1 1-4v2l5-2z" fill="#2846B4"/>
<path transform="translate(477,808)" d="m0 0 5 5 3 6 3 3-1 2-4-2v-3l-3-1z" fill="#0A2684"/>
<path transform="translate(589,773)" d="m0 0 2 3v5l-5 4-2-2z" fill="#101860"/>
<path transform="translate(390,687)" d="m0 0 2 1-3 3h-2l-1 5-7 6 1-4 2-1 2-7 5-2z" fill="#091879"/>
<path transform="translate(406,644)" d="m0 0h2l2 5v7l-3 4z" fill="#1C236A"/>
<path transform="translate(645,606)" d="m0 0 2 1v2l5 1v1h-8l-17-3v-1h8l9 1z" fill="#071474"/>
<path transform="translate(464,686)" d="m0 0 4 4 2 6v5l-3-3-3-7z" fill="#043782"/>
<path transform="translate(660,514)" d="m0 0 3 1 3 5 3 3 5 7-1 2-7-8-6-8z" fill="#082C83"/>
<path transform="translate(581,916)" d="m0 0 2 1-1 2 2 1-7 6v-3l-3-2z" fill="#0C1C7F"/>
<path transform="translate(644,845)" d="m0 0 1 4h-2l-1 5-6 5-2-1z" fill="#12268C"/>
<path transform="translate(853,836)" d="m0 0 1 2-1 8-4 4-3-1 2-1 1-5z" fill="#595277"/>
<path transform="translate(528,743)" d="m0 0 7 4 6 12-5-4-8-10z" fill="#072E83"/>
<path transform="translate(714,715)" d="m0 0 7 1 4 4v2l-6-2-6-3z" fill="#14227F"/>
<path transform="translate(512,685)" d="m0 0 3 1-7 4 2 12-2-1-3-7-1-2 2-4z" fill="#043482"/>
<path transform="translate(692,666)" d="m0 0h7v2l5 2v1l-10-1-4-2z" fill="#102368"/>
<path transform="translate(637,658)" d="m0 0h11l5 2v1h-15z" fill="#042270"/>
<path transform="translate(413,541)" d="m0 0h2v7l-3 1v3h-2v-7l1-3z" fill="#0E1B6C"/>
<path transform="translate(426,507)" d="m0 0h1l-1 7-5 5-2 1 3-9z" fill="#0F1769"/>
<path transform="translate(555,430)" d="m0 0 10 1 3 2-3 3h-3v-2l-6-2z" fill="#1C2368"/>
<path transform="translate(727,916)" d="m0 0 3 1-1 2h5v1l-15 1-1-2z" fill="#7B645F"/>
<path transform="translate(663,820)" d="m0 0m-2 1 2 1-3 9h-3l-4 4 2-5 3-5z" fill="#0B1875"/>
<path transform="translate(676,790)" d="m0 0 1 3h2l-2 6-2 2v-2h-3l2-7z" fill="#192883"/>
<path transform="translate(571,779)" d="m0 0 4 2 5 5-1 3-5-2-3-6z" fill="#121A66"/>
<path transform="translate(330,914)" d="m0 0 2 2 5 12-1 2-4-5-2-5z" fill="#374DBC"/>
<path transform="translate(772,897)" d="m0 0m-1 1 1 2-16 8-4-1 12-6z" fill="#7B645F"/>
<path transform="translate(508,713)" d="m0 0h2l5 8v2l3 1 2 7-4-4-7-11z" fill="#043582"/>
<path transform="translate(413,655)" d="m0 0h1v7h2l2 10-1 4-2-1-2-12z" fill="#2259BC"/>
<path transform="translate(566,521)" d="m0 0 5 1 1 4 5 1v3l-5-2-6-5z" fill="#101B67"/>
<path transform="translate(632,488)" d="m0 0 4 1 3 1 2 4 3 1v3l-4-2-8-6z" fill="#072E83"/>
<path transform="translate(609,470)" d="m0 0 9 2 8 7h-3l-14-8z" fill="#4B67F5"/>
<path transform="translate(439,739)" d="m0 0 3 3 4 8-1 3-3-4v-2h-2l-1-2z" fill="#055999"/>
<path transform="translate(703,669)" d="m0 0 9 2 4 2-2 2-5-1-7-2z" fill="#2E4675"/>
<path transform="translate(415,653)" d="m0 0 2 4 2 13-2 2-2-10z" fill="#A3B3F2"/>
<path transform="translate(666,511)" d="m0 0h4l3 9v4l-3-1-1-3v-3z" fill="#09207E"/>
<path transform="translate(704,614)" d="m0 0h2l1 8h-7l-6-2 4-1 6 1z" fill="#053482"/>
<path transform="translate(610,884)" d="m0 0h2l-2 4-8 8-1-3z" fill="#435FE8"/>
<path transform="translate(752,650)" d="m0 0 9 2 2 5-13-5z" fill="#C9A78B"/>
<path transform="translate(417,522)" d="m0 0 1 3v6l-3 6-2-1 3-12z" fill="#1C2267"/>
<path transform="translate(609,472)" d="m0 0 6 1 3 3-2 1 1 2-5-2-3-2z" fill="#054B90"/>
<path transform="translate(586,460)" d="m0 0 9 3 4 2-4 2-8-4z" fill="#0D63A9"/>
<path transform="translate(600,452)" d="m0 0 4 1 12 8-2 1-10-6-4-2z" fill="#4865F1"/>
<path transform="translate(517,865)" d="m0 0h4l-2 4-3 2-5-1 5-4z" fill="#10175F"/>
<path transform="translate(633,859)" d="m0 0 1 3-8 10-3 3-2-1 9-10z" fill="#182E98"/>
<path transform="translate(360,721)" d="m0 0h3l-2 5-5 8-1-2 3-8h2z" fill="#192E98"/>
<path transform="translate(541,616)" d="m0 0h7l2 2-9 2-4-1z" fill="#0B2081"/>
<path transform="translate(338,890)" d="m0 0 3 1 3 5-1 4-4-3z" fill="#405CE2"/>
<path transform="translate(600,747)" d="m0 0 1 3-2 5-3 5-1-4 4-8z" fill="#111960"/>
<path transform="translate(712,673)" d="m0 0 7 1 4 2v2l-8-1-1-3z" fill="#041F6D"/>
<path transform="translate(515,854)" d="m0 0 4 2 4 4-7-1-3-4z" fill="#1F2F89"/>
<path transform="translate(525,732)" d="m0 0 4 1 6 9-1 2-5-5-3-5z" fill="#161C61"/>
<path transform="translate(472,706)" d="m0 0 4 3 1 8-4-4z" fill="#043782"/>
<path transform="translate(676,517)" d="m0 0 3 4 3 5v2l-4-2-3-5z" fill="#19246E"/>
<path transform="translate(650,492)" d="m0 0 4 2v2l4 2 1 5-5-5-4-5z" fill="#1843A3"/>
<path transform="translate(764,899)" d="m0 0 3 1-10 6-1-2 2-3z" fill="#042875"/>
<path transform="translate(344,936)" d="m0 0 2 1v2l5 2-1 4-6-5z" fill="#4F67D7"/>
<path transform="translate(830,868)" d="m0 0 2 1-7 8-3 1 2-4 5-5z" fill="#A3959E"/>
<path transform="translate(758,828)" d="m0 0h5l-1 3-5 3-3-1 3-4z" fill="#071474"/>
<path transform="translate(572,787)" d="m0 0 4 1 5 4-2 4-7-8z" fill="#082C83"/>
<path transform="translate(680,784)" d="m0 0 2 1-2 8h-3l1-6z" fill="#112182"/>
<path transform="translate(683,548)" d="m0 0 4 2 4 9-1 4-6-12z" fill="#054E92"/>
</svg>
